<?xml version="1.0" encoding="UTF-8" standalone="no"?>
<!-- Created with Inkscape (http://www.inkscape.org/) -->

<svg
   xmlns:dc="http://purl.org/dc/elements/1.1/"
   xmlns:cc="http://creativecommons.org/ns#"
   xmlns:rdf="http://www.w3.org/1999/02/22-rdf-syntax-ns#"
   xmlns:svg="http://www.w3.org/2000/svg"
   xmlns="http://www.w3.org/2000/svg"
   xmlns:sodipodi="http://sodipodi.sourceforge.net/DTD/sodipodi-0.dtd"
   xmlns:inkscape="http://www.inkscape.org/namespaces/inkscape"
   id="svg3065"
   version="1.1"
   inkscape:version="0.48.4 r9939"
   width="20"
   height="20"
   xml:space="preserve"
   sodipodi:docname="word_solo_onda_bianco_16.pdf"><metadata
     id="metadata3071"><rdf:RDF><cc:Work
         rdf:about=""><dc:format>image/svg+xml</dc:format><dc:type
           rdf:resource="http://purl.org/dc/dcmitype/StillImage" /><dc:title></dc:title></cc:Work></rdf:RDF></metadata><defs
     id="defs3069"><clipPath
       clipPathUnits="userSpaceOnUse"
       id="clipPath3079"><path
         d="M 0,16 16,16 16,0 0,0 0,16 z"
         id="path3081" /></clipPath></defs><sodipodi:namedview
     pagecolor="#ffffff"
     bordercolor="#666666"
     borderopacity="1"
     objecttolerance="10"
     gridtolerance="10"
     guidetolerance="10"
     inkscape:pageopacity="0"
     inkscape:pageshadow="2"
     inkscape:window-width="1920"
     inkscape:window-height="1150"
     id="namedview3067"
     showgrid="false"
     inkscape:zoom="23.6"
     inkscape:cx="12.318943"
     inkscape:cy="6.6147308"
     inkscape:window-x="0"
     inkscape:window-y="0"
     inkscape:window-maximized="1"
     inkscape:current-layer="g3073" /><g
     id="g3073"
     inkscape:groupmode="layer"
     inkscape:label="word_solo_onda_bianco_16"
     transform="matrix(1.25,0,0,-1.25,0,20)"><g
       id="g3075"><g
         id="g3077"
         clip-path="url(#clipPath3079)"><g
           id="g3083"
           transform="translate(10.6575,14.7616)"><path
             d="m 0,0 c 0,-0.684 -0.554,-1.238 -1.238,-1.238 -0.684,0 -1.239,0.554 -1.239,1.238 0,0.684 0.555,1.238 1.239,1.238 C -0.554,1.238 0,0.684 0,0"
             style="fill:#ffffff;fill-opacity:1;fill-rule:nonzero;stroke:none"
             id="path3085" /></g><g
           id="g3087"
           transform="translate(6.1826,12.4707)"><path
             d="m 0,0 c 0,-0.684 -0.554,-1.238 -1.238,-1.238 -0.684,0 -1.239,0.554 -1.239,1.238 0,0.684 0.555,1.238 1.239,1.238 C -0.554,1.238 0,0.684 0,0"
             style="fill:#ffffff;fill-opacity:1;fill-rule:nonzero;stroke:none"
             id="path3089" /></g><g
           id="g3091"
           transform="translate(10.6737,1.2384)"><path
             d="m 0,0 c 0,0.684 -0.554,1.238 -1.238,1.238 -0.684,0 -1.239,-0.554 -1.239,-1.238 0,-0.684 0.555,-1.238 1.239,-1.238 C -0.554,-1.238 0,-0.684 0,0"
             style="fill:#ffffff;fill-opacity:1;fill-rule:nonzero;stroke:none"
             id="path3093" /></g><g
           id="g3095"
           transform="translate(6.1988,3.5293)"><path
             d="m 0,0 c 0,0.684 -0.554,1.238 -1.238,1.238 -0.684,0 -1.239,-0.554 -1.239,-1.238 0,-0.684 0.555,-1.238 1.239,-1.238 C -0.554,-1.238 0,-0.684 0,0"
             style="fill:#ffffff;fill-opacity:1;fill-rule:nonzero;stroke:none"
             id="path3097" /></g><g
           id="g3099"
           transform="translate(12.294,8)"><path
             d="m 0,0 -0.016,0 c 0,0.007 0,0.014 0,0.021 0,2.635 -0.635,5.122 -1.761,7.316 L -3.996,6.201 c 0.951,-1.853 1.487,-3.954 1.487,-6.18 0,-0.007 0,-0.014 0,-0.021 l 0.016,0 c 0,-0.007 0,-0.014 0,-0.021 0,-2.226 -0.536,-4.327 -1.487,-6.18 l 2.219,-1.136 C -0.635,-5.143 0,-2.656 0,-0.021 0,-0.014 0,-0.007 0,0"
             style="fill:#ffffff;fill-opacity:1;fill-rule:nonzero;stroke:none"
             id="path3101" /></g><g
           id="g3103"
           transform="translate(7.2545,8)"><path
             d="M 0,0 C 0,0.007 0,0.014 0,0.021 0,1.831 -0.436,3.54 -1.21,5.047 L -3.446,3.902 c 0.597,-1.163 0.934,-2.483 0.934,-3.881 0,-0.007 0,-0.014 0,-0.021 l 0.016,0 c 0,-0.007 0,-0.014 0,-0.021 0,-1.398 -0.337,-2.718 -0.934,-3.881 l 2.236,-1.145 c 0.774,1.507 1.21,3.216 1.21,5.026 0,0.007 0,0.014 0,0.021 L 0,0 z"
             style="fill:#ffffff;fill-opacity:1;fill-rule:nonzero;stroke:none"
             id="path3105" /></g></g></g></g></svg>